sfk_cyclingleg_states
version=1
nRows=5
nColumns=53
inDegrees=yes

# SIMM Motion File Header:
name sfk_cyclingleg_states
datacolumns 53
datarows 5
otherdata 1
range 0.00000000 0.01496907
endheader
time	/jointset/bb/crank_angle/value	/jointset/bb/crank_angle/speed	/jointset/spindle/pedal_angle_r/value	/jointset/spindle/pedal_angle_r/speed	/jointset/ground_pelvis/pelvis_tilt/value	/jointset/ground_pelvis/pelvis_tilt/speed	/jointset/ground_pelvis/pelvis_list/value	/jointset/ground_pelvis/pelvis_list/speed	/jointset/ground_pelvis/pelvis_rotation/value	/jointset/ground_pelvis/pelvis_rotation/speed	/jointset/ground_pelvis/pelvis_tx/value	/jointset/ground_pelvis/pelvis_tx/speed	/jointset/ground_pelvis/pelvis_ty/value	/jointset/ground_pelvis/pelvis_ty/speed	/jointset/ground_pelvis/pelvis_tz/value	/jointset/ground_pelvis/pelvis_tz/speed	/jointset/hip_r/hip_angle_r/value	/jointset/hip_r/hip_angle_r/speed	/jointset/hip_r/hip_adduction_r/value	/jointset/hip_r/hip_adduction_r/speed	/jointset/hip_r/hip_rotation_r/value	/jointset/hip_r/hip_rotation_r/speed	/jointset/knee_r/knee_angle_r/value	/jointset/knee_r/knee_angle_r/speed	/jointset/knee_r/tib_tx_r/value	/jointset/knee_r/tib_tx_r/speed	/jointset/knee_r/tib_ty_r/value	/jointset/knee_r/tib_ty_r/speed	/jointset/tib_pat_r/pat_angle_r/value	/jointset/tib_pat_r/pat_angle_r/speed	/jointset/tib_pat_r/pat_tx_r/value	/jointset/tib_pat_r/pat_tx_r/speed	/jointset/tib_pat_r/pat_ty_r/value	/jointset/tib_pat_r/pat_ty_r/speed	/jointset/ankle_r/ankle_angle_r/value	/jointset/ankle_r/ankle_angle_r/speed	/jointset/subtalar_r/subtalar_angle_r/value	/jointset/subtalar_r/subtalar_angle_r/speed	/jointset/mtp_r/mtp_angle_r/value	/jointset/mtp_r/mtp_angle_r/speed	/forceset/bifemlh_r/activation	/forceset/bifemlh_r/fiber_length	/forceset/bifemsh_r/activation	/forceset/bifemsh_r/fiber_length	/forceset/glut_max2_r/activation	/forceset/glut_max2_r/fiber_length	/forceset/vas_int_r/activation	/forceset/vas_int_r/fiber_length	/forceset/med_gas_r/activation	/forceset/med_gas_r/fiber_length	/forceset/tib_ant_r/activation	/forceset/tib_ant_r/fiber_length
      0.00000000	    -10.13487855	   -480.13863232	      3.93720119	    611.57141349	      0.00000000	      0.00000000	     -0.00000000	      0.00000000	     -0.00000000	      0.00000000	     -0.00000000	      0.00000000	     -0.00000000	      0.00000000	     -0.00000000	     -0.00000000	     81.60187645	     31.46318966	      4.08770574	      1.42736615	     -3.71686533	     14.49945711	   -114.53781868	    142.62177431	     -0.00182076	      0.04714384	     -0.49428903	      0.04647078	     17.64997176	     -0.13967557	      0.02216583	      0.06926674	     -0.02416741	      0.01114607	     27.42240000	    -43.94091677	     -0.00000000	      0.00000000	     -0.00000000	     -0.00000000	      0.05000000	      0.13724584	      0.05000000	      0.14494627	      0.05000000	      0.15454916	      0.05000000	      0.16013391	      0.05000000	      0.10000000	      0.05000000	      0.10000000
      0.00116067	    -10.69216109	   -480.13863232	      4.64678527	    611.14219957	      0.00000000	      0.00000000	      0.00000000	      0.00000000	      0.00000000	      0.00000000	      0.00000000	      0.00000000	      0.00000000	      0.00000000	     -0.00000000	     -0.00000000	     81.63709711	     29.22611745	      4.08937474	      1.44851650	     -3.69993054	     14.68108264	   -114.37101564	    144.80103709	     -0.00176574	      0.04765649	     -0.49423466	      0.04722548	     17.64980295	     -0.15126153	      0.02224677	      0.07021004	     -0.02415438	      0.01128947	     27.37117403	    -44.32607941	     -0.00000000	     -0.00000000	     -0.00000000	      0.00000000	      0.04917358	      0.13724683	      0.04917358	      0.14494895	      0.04917358	      0.15455034	      0.04917358	      0.16012073	      0.05000000	      0.10000000	      0.05000000	      0.10000000
      0.00544975	    -12.75151430	   -480.13863232	      7.26455060	    609.51196997	      0.00000000	      0.00000000	     -0.00000000	     -0.00000000	      0.00000000	      0.00000000	      0.00000000	      0.00000000	      0.00000000	      0.00000000	     -0.00000000	     -0.00000000	     81.74465434	     20.91806680	      4.09575127	      1.52419735	     -3.63556488	     15.32570357	   -113.73289828	    152.71718222	     -0.00155747	      0.04942573	     -0.49402617	      0.04998411	     17.64905814	     -0.19672258	      0.02255521	      0.07358578	     -0.02410486	      0.01179622	     27.17822110	    -45.61204149	      0.00000000	      0.00000000	     -0.00000000	     -0.00000000	      0.04625047	      0.13726960	      0.04625047	      0.14500220	      0.04625047	      0.15457367	      0.04625047	      0.15992931	      0.05000000	      0.10000000	      0.05000000	      0.10000000
      0.00973883	    -14.81086751	   -480.13863232	      9.87519462	    607.82407224	      0.00000000	      0.00000000	     -0.00000000	     -0.00000000	      0.00000000	      0.00000000	      0.00000000	      0.00000000	      0.00000000	      0.00000000	     -0.00000000	     -0.00000000	     81.81646872	     12.56317515	      4.10244357	      1.59569369	     -3.56852344	     15.92889434	   -113.06129703	    160.41377868	     -0.00134204	      0.05099587	     -0.49380596	      0.05269298	     17.64810989	     -0.24605622	      0.02287775	      0.07678617	     -0.02405325	      0.01226533	     26.98021225	    -46.68428312	      0.00000000	     -0.00000000	     -0.00000000	     -0.00000000	      0.04352089	      0.13732665	      0.04352089	      0.14510107	      0.04352089	      0.15461870	      0.04352089	      0.15962733	      0.05000000	      0.10000000	      0.05000000	      0.10000000
      0.01496907	    -17.32210674	   -480.13863232	     13.04875025	    605.70897914	      0.00000000	      0.00000000	     -0.00000000	     -0.00000000	      0.00000000	      0.00000000	      0.00000000	      0.00000000	      0.00000000	     -0.00000000	     -0.00000000	     -0.00000000	     81.85546284	      2.34548085	      4.11100434	      1.67670025	     -3.48340581	     16.60943770	   -112.19839736	    169.49595645	     -0.00107090	      0.05263866	     -0.49352187	      0.05592481	     17.64665566	     -0.31080341	      0.02328906	      0.08044882	     -0.02398772	      0.01278429	     26.73322860	    -47.70921561	     -0.00000000	     -0.00000000	     -0.00000000	     -0.00000000	      0.04043251	      0.13744241	      0.04043251	      0.14524666	      0.04043251	      0.15468311	      0.04043251	      0.15929476	      0.05000000	      0.10000000	      0.05000000	      0.10000000
